<?xml version="1.0" encoding="utf-8"?>
<!-- Generator: Adobe Illustrator 25.2.0, SVG Export Plug-In . SVG Version: 6.00 Build 0)  -->
<svg version="1.1" id="Layer_1" xmlns="http://www.w3.org/2000/svg" xmlns:xlink="http://www.w3.org/1999/xlink" x="0px" y="0px"
	 width="406px" height="406px" viewBox="0 0 406 406" style="enable-background:new 0 0 406 406;" xml:space="preserve">
<style type="text/css">
	.st0{fill:#D35400;}
</style>
<path class="st0" d="M235.84,122.85c56.63-0.03,113.28-0.01,169.91-0.01V0.25h-406l0,253.41c54.16-0.09,108.33,0.23,162.49-0.14
	c16.98-0.41,17.35-29.3,0.92-31.06c-23.62-0.92-47.28,0-70.91-0.41c-11.48-0.43-23.03-4.4-31.69-12.07
	c-21.25-18.02-21.88-54.9-1.35-73.69c9.74-9.74,23.89-13.87,37.44-13.51c26.98,0.17,53.98-0.1,80.97,0.06
	c9.35,0.06,16.89,7.67,16.88,17.01v0c-0.01,9.34-7.56,16.92-16.91,16.97c-26.21,0.13-52.43,0.26-78.65-0.41
	c-5.44,0.32-11.91-0.52-16.06,3.81c-5.86,5.75-6,15.59-1.94,22.4c3.45,5.14,10.22,5.73,15.88,5.77c21.07,0.02,42.13-0.07,63.2-0.02
	c21.97-0.29,43.55,15.86,47.84,37.71c1.92,12.18,1.51,25.4-4.58,36.4c-8.46,15.5-25.92,24.99-43.42,24.77
	c-53.37,0.9-106.76,0.27-160.12,0.45v118.53h406V156.88c-29.68,0.02-59.37-0.02-89.07,0.02c-0.05,43.61,0.09,87.22-0.05,130.83
	c0,0,0,0,0,0h-33.61c-0.14-43.61,0-87.22-0.07-130.83c-15.71-0.03-31.41,0.01-47.11-0.01c-9.3-0.01-16.85-7.54-16.85-16.85v-0.34
	C219,130.4,226.54,122.86,235.84,122.85z"/>
</svg>
